<svg xmlns="http://www.w3.org/2000/svg" viewBox="0 0 520 280" width="520" height="280">
  <rect width="100%" height="100%" fill="#fff"/>
  <text x="16" y="22" font-size="13" font-weight="600" fill="#222" font-family="Inter,sans-serif">Marketing channels · shuftipro</text>
  <text x="16" y="36" font-size="10" fill="#888" font-family="Inter,sans-serif">Similarweb · апр–июнь 2026 · Worldwide</text>
  <line x1="48" y1="224" x2="504" y2="224" stroke="#eee"/><text x="40" y="228" text-anchor="end" font-size="9" fill="#999">0%</text><line x1="48" y1="165.25" x2="504" y2="165.25" stroke="#eee"/><text x="40" y="169.25" text-anchor="end" font-size="9" fill="#999">25%</text><line x1="48" y1="106.5" x2="504" y2="106.5" stroke="#eee"/><text x="40" y="110.5" text-anchor="end" font-size="9" fill="#999">50%</text><line x1="48" y1="47.75" x2="504" y2="47.75" stroke="#eee"/><text x="40" y="51.75" text-anchor="end" font-size="9" fill="#999">75%</text>
        <rect x="48" y="45.870000000000005" width="68" height="178.13" fill="#5178B4" rx="2"/>
        <rect x="48" y="45.870000000000005" width="68" height="4" fill="#3D5F96" rx="1"/>
        <text x="82" y="39.870000000000005" text-anchor="middle" font-size="11" fill="#333" font-family="Inter,sans-serif">75.8%</text>
        <text x="82" y="252" text-anchor="middle" font-size="10" fill="#555" font-family="Inter,sans-serif">Direct</text>
        <rect x="124" y="190.39499999999998" width="68" height="33.605000000000004" fill="#5178B4" rx="2"/>
        <rect x="124" y="190.39499999999998" width="68" height="4" fill="#3D5F96" rx="1"/>
        <text x="158" y="184.39499999999998" text-anchor="middle" font-size="11" fill="#333" font-family="Inter,sans-serif">14.3%</text>
        <text x="158" y="252" text-anchor="middle" font-size="10" fill="#555" font-family="Inter,sans-serif">Referrals</text>
        <rect x="200" y="200.735" width="68" height="23.265" fill="#5178B4" rx="2"/>
        <rect x="200" y="200.735" width="68" height="4" fill="#3D5F96" rx="1"/>
        <text x="234" y="194.735" text-anchor="middle" font-size="11" fill="#333" font-family="Inter,sans-serif">9.9%</text>
        <text x="234" y="252" text-anchor="middle" font-size="10" fill="#555" font-family="Inter,sans-serif">Organic</text>
        <rect x="276" y="218.36" width="68" height="5.64" fill="#5178B4" rx="2"/>
        <rect x="276" y="218.36" width="68" height="4" fill="#3D5F96" rx="1"/>
        <text x="310" y="212.36" text-anchor="middle" font-size="11" fill="#333" font-family="Inter,sans-serif">2.4%</text>
        <text x="310" y="252" text-anchor="middle" font-size="10" fill="#555" font-family="Inter,sans-serif">Paid</text>
        <rect x="352" y="220.71" width="68" height="3.2899999999999996" fill="#5178B4" rx="2"/>
        <rect x="352" y="220.71" width="68" height="4" fill="#3D5F96" rx="1"/>
        <text x="386" y="214.71" text-anchor="middle" font-size="11" fill="#333" font-family="Inter,sans-serif">1.4%</text>
        <text x="386" y="252" text-anchor="middle" font-size="10" fill="#555" font-family="Inter,sans-serif">Email</text>
        <rect x="428" y="221.18" width="68" height="2.82" fill="#5178B4" rx="2"/>
        <rect x="428" y="221.18" width="68" height="4" fill="#3D5F96" rx="1"/>
        <text x="462" y="215.18" text-anchor="middle" font-size="11" fill="#333" font-family="Inter,sans-serif">1.2%</text>
        <text x="462" y="252" text-anchor="middle" font-size="10" fill="#555" font-family="Inter,sans-serif">Social</text>
</svg>